<?xml version="1.0" encoding="UTF-8" standalone="no"?>
<!DOCTYPE svg PUBLIC "-//W3C//DTD SVG 20010904//EN"
"http://www.w3.org/TR/2001/REC-SVG-20010904/DTD/svg10.dtd">
<!-- Created with Sodipodi ("http://www.sodipodi.com/") -->
<svg
   id="svg814"
   sodipodi:version="0.32"
   width="128pt"
   height="128pt"
   sodipodi:docbase="/home/francois/Documents/work/artwork/new_theme/Improved/mcs/scalable"
   sodipodi:docname="xfcalendar.svg"
   inkscape:version="0.38.1"
   xmlns="http://www.w3.org/2000/svg"
   xmlns:inkscape="http://www.inkscape.org/namespaces/inkscape"
   xmlns:sodipodi="http://sodipodi.sourceforge.net/DTD/sodipodi-0.dtd"
   xmlns:xlink="http://www.w3.org/1999/xlink">
  <defs
     id="defs816">
    <linearGradient
       id="linearGradient828">
      <stop
         style="stop-color:#f3f2f2;stop-opacity:1.0000;"
         offset="0"
         id="stop829" />
      <stop
         style="stop-color:#adaaaa;stop-opacity:1.0000;"
         offset="1"
         id="stop830" />
    </linearGradient>
    <linearGradient
       xlink:href="#linearGradient828"
       id="linearGradient831"
       x1="4.651171e-2"
       y1="7.031250e-2"
       x2="0.775194"
       y2="0.882812" />
  </defs>
  <sodipodi:namedview
     id="base"
     showgrid="false"
     snaptogrid="true"
     gridspacingx="1mm"
     gridspacingy="1mm"
     inkscape:zoom="2.8359375"
     inkscape:cx="44.845364"
     inkscape:cy="55.184573"
     inkscape:window-width="997"
     inkscape:window-height="719"
     inkscape:window-x="47"
     inkscape:window-y="86" />
  <rect
     style="font-size:12.000;fill:#000000;fill-rule:evenodd;stroke-width:3.7500;fill-opacity:0.4815;stroke:none;stroke-opacity:1.0000;stroke-dasharray:none;stroke-linejoin:round;"
     id="rect827"
     width="134.9846"
     height="148.1226"
     x="17.37760"
     y="8.334088" />
  <rect
     style="font-size:12.000;fill:#ffffff;fill-rule:evenodd;stroke:#000000;stroke-width:3.566150;stroke-linejoin:round;fill-opacity:1.0000;"
     id="rect817"
     width="131.3800"
     height="145.2756"
     x="14.17321"
     y="4.790783" />
  <path
     transform="scale(6.741233,7.394729)"
     style="font-size:12.000000;fill:#d1940c;stroke:#000000;stroke-width:0.088500001;font-family:helvetica;fill-opacity:1.0000000;"
     d="M 14.265738,13.734693 L 18.396597,13.734693 L 18.396597,14.730786 L 12.841909,14.730786 L 12.841909,13.734693 C 13.291128,13.269849 13.902456,12.646802 14.675894,11.865552 C 15.453238,11.080396 15.941519,10.574536 16.140738,10.347974 C 16.519644,9.9221926 16.783316,9.5628176 16.931753,9.2698488 C 17.084097,8.9729738 17.160269,8.6819582 17.160269,8.3968019 C 17.160269,7.9319582 16.996206,7.5530519 16.668081,7.2600832 C 16.343863,6.9671144 15.920034,6.8206301 15.396597,6.8206301 C 15.025503,6.8206301 14.632925,6.8850832 14.218863,7.0139894 C 13.808706,7.1428957 13.369253,7.3382082 12.900503,7.5999269 L 12.900503,6.4046144 C 13.377066,6.2132082 13.822378,6.0686769 14.236441,5.9710207 C 14.650503,5.8733644 15.029409,5.8245363 15.373159,5.8245363 C 16.279409,5.8245363 17.002066,6.0510988 17.541128,6.5042238 C 18.080191,6.9573488 18.349722,7.5628176 18.349722,8.3206301 C 18.349722,8.6800051 18.281363,9.0218019 18.144644,9.3460207 C 18.011831,9.6663332 17.767691,10.045239 17.412222,10.482739 C 17.314566,10.596021 17.004019,10.924146 16.480581,11.467114 C 15.957144,12.006177 15.218863,12.762036 14.265738,13.734693 z M 5.8165188,13.734693 L 7.7501125,13.734693 L 7.7501125,7.0608644 L 5.6465969,7.4827394 L 5.6465969,6.4046144 L 7.7383938,5.9827394 L 8.9219875,5.9827394 L 8.9219875,13.734693 L 10.855581,13.734693 L 10.855581,14.730786 L 5.8165188,14.730786 L 5.8165188,13.734693 z "
     id="path842" />
  <path
     transform="scale(2.280923,2.168811)"
     style="font-size:12.000000;stroke-width:0.21230000;font-family:helvetica;"
     d="M 55.300670,16.146581 C 54.995982,16.927831 54.699107,17.437596 54.410045,17.675878 C 54.120982,17.914159 53.734263,18.033299 53.249888,18.033299 L 52.388560,18.033299 L 52.388560,17.130956 L 53.021373,17.130956 C 53.318248,17.130956 53.548717,17.060643 53.712779,16.920018 C 53.876842,16.779393 54.058482,16.447362 54.257701,15.923924 L 54.451060,15.431737 L 51.796763,8.9747057 L 52.939342,8.9747057 L 54.990123,14.107518 L 57.040904,8.9747057 L 58.183482,8.9747057 L 55.300670,16.146581 z M 51.439342,9.9825182 C 51.318248,9.9122057 51.185435,9.8614244 51.040904,9.8301744 C 50.900279,9.7950182 50.744029,9.7774401 50.572154,9.7774401 C 49.962779,9.7774401 49.494029,9.9766588 49.165904,10.375096 C 48.841685,10.769628 48.679576,11.337987 48.679576,12.080174 L 48.679576,15.537206 L 47.595592,15.537206 L 47.595592,8.9747057 L 48.679576,8.9747057 L 48.679576,9.9942369 C 48.906138,9.5957994 49.201060,9.3008776 49.564342,9.1094713 C 49.927623,8.9141588 50.369029,8.8165026 50.888560,8.8165026 C 50.962779,8.8165026 51.044810,8.8223619 51.134654,8.8340807 C 51.224498,8.8418932 51.324107,8.8555651 51.433482,8.8750963 L 51.439342,9.9825182 z M 43.265513,12.238378 C 42.394420,12.238378 41.790904,12.337987 41.454967,12.537206 C 41.119029,12.736424 40.951060,13.076268 40.951060,13.556737 C 40.951060,13.939549 41.076060,14.244237 41.326060,14.470799 C 41.579967,14.693456 41.923717,14.804784 42.357310,14.804784 C 42.954967,14.804784 43.433482,14.593846 43.792857,14.171971 C 44.156138,13.746190 44.337779,13.181737 44.337779,12.478612 L 44.337779,12.238378 L 43.265513,12.238378 z M 45.415904,11.793065 L 45.415904,15.537206 L 44.337779,15.537206 L 44.337779,14.541112 C 44.091685,14.939549 43.785045,15.234471 43.417857,15.425878 C 43.050670,15.613378 42.601451,15.707128 42.070201,15.707128 C 41.398326,15.707128 40.863170,15.519628 40.464732,15.144628 C 40.070201,14.765721 39.872935,14.259862 39.872935,13.627049 C 39.872935,12.888768 40.119029,12.332128 40.611217,11.957128 C 41.107310,11.582128 41.845592,11.394628 42.826060,11.394628 L 44.337779,11.394628 L 44.337779,11.289159 C 44.337779,10.793065 44.173717,10.410253 43.845592,10.140721 C 43.521373,9.8672838 43.064342,9.7305651 42.474498,9.7305651 C 42.099498,9.7305651 41.734263,9.7754869 41.378795,9.8653307 C 41.023326,9.9551744 40.681529,10.089940 40.353404,10.269628 L 40.353404,9.2735338 C 40.747935,9.1211901 41.130748,9.0079088 41.501842,8.9336901 C 41.872935,8.8555651 42.234263,8.8165026 42.585826,8.8165026 C 43.535045,8.8165026 44.244029,9.0625963 44.712779,9.5547838 C 45.181529,10.046971 45.415904,10.793065 45.415904,11.793065 z M 32.566295,12.947362 L 32.566295,8.9747057 L 33.644420,8.9747057 L 33.644420,12.906346 C 33.644420,13.527440 33.765513,13.994237 34.007701,14.306737 C 34.249888,14.615331 34.613170,14.769628 35.097545,14.769628 C 35.679576,14.769628 36.138560,14.584081 36.474498,14.212987 C 36.814342,13.841893 36.984263,13.336034 36.984263,12.695409 L 36.984263,8.9747057 L 38.062388,8.9747057 L 38.062388,15.537206 L 36.984263,15.537206 L 36.984263,14.529393 C 36.722545,14.927831 36.417857,15.224706 36.070201,15.420018 C 35.726451,15.611424 35.326060,15.707128 34.869029,15.707128 C 34.115123,15.707128 33.542857,15.472753 33.152232,15.004003 C 32.761607,14.535253 32.566295,13.849706 32.566295,12.947362 z M 30.527232,11.576268 L 30.527232,15.537206 L 29.449107,15.537206 L 29.449107,11.611424 C 29.449107,10.990331 29.328013,10.525487 29.085826,10.216893 C 28.843638,9.9082994 28.480357,9.7540026 27.995982,9.7540026 C 27.413951,9.7540026 26.954967,9.9395494 26.619029,10.310643 C 26.283092,10.681737 26.115123,11.187596 26.115123,11.828221 L 26.115123,15.537206 L 25.031138,15.537206 L 25.031138,8.9747057 L 26.115123,8.9747057 L 26.115123,9.9942369 C 26.372935,9.5997057 26.675670,9.3047838 27.023326,9.1094713 C 27.374888,8.9141588 27.779185,8.8165026 28.236217,8.8165026 C 28.990123,8.8165026 29.560435,9.0508776 29.947154,9.5196276 C 30.333873,9.9844713 30.527232,10.670018 30.527232,11.576268 z M 20.701060,12.238378 C 19.829967,12.238378 19.226451,12.337987 18.890513,12.537206 C 18.554576,12.736424 18.386607,13.076268 18.386607,13.556737 C 18.386607,13.939549 18.511607,14.244237 18.761607,14.470799 C 19.015513,14.693456 19.359263,14.804784 19.792857,14.804784 C 20.390513,14.804784 20.869029,14.593846 21.228404,14.171971 C 21.591685,13.746190 21.773326,13.181737 21.773326,12.478612 L 21.773326,12.238378 L 20.701060,12.238378 z M 22.851451,11.793065 L 22.851451,15.537206 L 21.773326,15.537206 L 21.773326,14.541112 C 21.527232,14.939549 21.220592,15.234471 20.853404,15.425878 C 20.486217,15.613378 20.036998,15.707128 19.505748,15.707128 C 18.833873,15.707128 18.298717,15.519628 17.900279,15.144628 C 17.505748,14.765721 17.308482,14.259862 17.308482,13.627049 C 17.308482,12.888768 17.554576,12.332128 18.046763,11.957128 C 18.542857,11.582128 19.281138,11.394628 20.261607,11.394628 L 21.773326,11.394628 L 21.773326,11.289159 C 21.773326,10.793065 21.609263,10.410253 21.281138,10.140721 C 20.956920,9.8672838 20.499888,9.7305651 19.910045,9.7305651 C 19.535045,9.7305651 19.169810,9.7754869 18.814342,9.8653307 C 18.458873,9.9551744 18.117076,10.089940 17.788951,10.269628 L 17.788951,9.2735338 C 18.183482,9.1211901 18.566295,9.0079088 18.937388,8.9336901 C 19.308482,8.8555651 19.669810,8.8165026 20.021373,8.8165026 C 20.970592,8.8165026 21.679576,9.0625963 22.148326,9.5547838 C 22.617076,10.046971 22.851451,10.793065 22.851451,11.793065 z M 14.226451,6.7891588 L 15.410045,6.7891588 L 15.410045,14.927831 C 15.410045,15.982518 15.208873,16.748143 14.806529,17.224706 C 14.408092,17.701268 13.765513,17.939549 12.878795,17.939549 L 12.427623,17.939549 L 12.427623,16.943456 L 12.796763,16.943456 C 13.320201,16.943456 13.689342,16.796971 13.904185,16.504003 C 14.119029,16.211034 14.226451,15.685643 14.226451,14.927831 L 14.226451,6.7891588 z "
     id="path840" />
  <path
     transform="scale(2.233890,2.168811)"
     style="font-size:12.000000;stroke-width:0.21160001;font-family:helvetica;"
     d="M 55.805109,63.717644 C 55.500422,64.498894 55.203547,65.008659 54.914484,65.246941 C 54.625422,65.485222 54.238703,65.604362 53.754328,65.604362 L 52.893000,65.604362 L 52.893000,64.702019 L 53.525812,64.702019 C 53.822687,64.702019 54.053156,64.631706 54.217218,64.491081 C 54.381281,64.350456 54.562922,64.018425 54.762140,63.494987 L 54.955500,63.002800 L 52.301203,56.545769 L 53.443781,56.545769 L 55.494562,61.678581 L 57.545343,56.545769 L 58.687922,56.545769 L 55.805109,63.717644 z M 48.703547,59.809441 C 47.832453,59.809441 47.228937,59.909050 46.893000,60.108269 C 46.557062,60.307487 46.389093,60.647331 46.389093,61.127800 C 46.389093,61.510612 46.514093,61.815300 46.764093,62.041862 C 47.018000,62.264519 47.361750,62.375847 47.795343,62.375847 C 48.393000,62.375847 48.871515,62.164909 49.230890,61.743034 C 49.594172,61.317253 49.775812,60.752800 49.775812,60.049675 L 49.775812,59.809441 L 48.703547,59.809441 z M 50.853937,59.364128 L 50.853937,63.108269 L 49.775812,63.108269 L 49.775812,62.112175 C 49.529718,62.510612 49.223078,62.805534 48.855890,62.996941 C 48.488703,63.184441 48.039484,63.278191 47.508234,63.278191 C 46.836359,63.278191 46.301203,63.090691 45.902765,62.715691 C 45.508234,62.336784 45.310968,61.830925 45.310968,61.198112 C 45.310968,60.459831 45.557062,59.903191 46.049250,59.528191 C 46.545343,59.153191 47.283625,58.965691 48.264093,58.965691 L 49.775812,58.965691 L 49.775812,58.860222 C 49.775812,58.364128 49.611750,57.981316 49.283625,57.711784 C 48.959406,57.438347 48.502375,57.301628 47.912531,57.301628 C 47.537531,57.301628 47.172297,57.346550 46.816828,57.436394 C 46.461359,57.526237 46.119562,57.661003 45.791437,57.840691 L 45.791437,56.844597 C 46.185968,56.692253 46.568781,56.578972 46.939875,56.504753 C 47.310968,56.426628 47.672297,56.387566 48.023859,56.387566 C 48.973078,56.387566 49.682062,56.633659 50.150812,57.125847 C 50.619562,57.618034 50.853937,58.364128 50.853937,59.364128 z M 42.422297,57.541862 L 42.422297,53.991081 L 43.500422,53.991081 L 43.500422,63.108269 L 42.422297,63.108269 L 42.422297,62.123894 C 42.195734,62.514519 41.908625,62.805534 41.560968,62.996941 C 41.217218,63.184441 40.803156,63.278191 40.318781,63.278191 C 39.525812,63.278191 38.879328,62.961784 38.379328,62.328972 C 37.883234,61.696159 37.635187,60.864128 37.635187,59.832878 C 37.635187,58.801628 37.883234,57.969597 38.379328,57.336784 C 38.879328,56.703972 39.525812,56.387566 40.318781,56.387566 C 40.803156,56.387566 41.217218,56.483269 41.560968,56.674675 C 41.908625,56.862175 42.195734,57.151237 42.422297,57.541862 z M 38.748468,59.832878 C 38.748468,60.625847 38.910578,61.248894 39.234797,61.702019 C 39.562922,62.151237 40.012140,62.375847 40.582453,62.375847 C 41.152765,62.375847 41.601984,62.151237 41.930109,61.702019 C 42.258234,61.248894 42.422297,60.625847 42.422297,59.832878 C 42.422297,59.039909 42.258234,58.418816 41.930109,57.969597 C 41.601984,57.516472 41.152765,57.289909 40.582453,57.289909 C 40.012140,57.289909 39.562922,57.516472 39.234797,57.969597 C 38.910578,58.418816 38.748468,59.039909 38.748468,59.832878 z M 35.953547,59.147331 L 35.953547,63.108269 L 34.875422,63.108269 L 34.875422,59.182487 C 34.875422,58.561394 34.754328,58.096550 34.512140,57.787956 C 34.269953,57.479362 33.906672,57.325066 33.422297,57.325066 C 32.840265,57.325066 32.381281,57.510612 32.045343,57.881706 C 31.709406,58.252800 31.541437,58.758659 31.541437,59.399284 L 31.541437,63.108269 L 30.457453,63.108269 L 30.457453,56.545769 L 31.541437,56.545769 L 31.541437,57.565300 C 31.799250,57.170769 32.101984,56.875847 32.449640,56.680534 C 32.801203,56.485222 33.205500,56.387566 33.662531,56.387566 C 34.416437,56.387566 34.986750,56.621941 35.373468,57.090691 C 35.760187,57.555534 35.953547,58.241081 35.953547,59.147331 z M 25.699640,57.301628 C 25.121515,57.301628 24.664484,57.528191 24.328547,57.981316 C 23.992609,58.430534 23.824640,59.047722 23.824640,59.832878 C 23.824640,60.618034 23.990656,61.237175 24.322687,61.690300 C 24.658625,62.139519 25.117609,62.364128 25.699640,62.364128 C 26.273859,62.364128 26.728937,62.137566 27.064875,61.684441 C 27.400812,61.231316 27.568781,60.614128 27.568781,59.832878 C 27.568781,59.055534 27.400812,58.440300 27.064875,57.987175 C 26.728937,57.530144 26.273859,57.301628 25.699640,57.301628 z M 25.699640,56.387566 C 26.637140,56.387566 27.373468,56.692253 27.908625,57.301628 C 28.443781,57.911003 28.711359,58.754753 28.711359,59.832878 C 28.711359,60.907097 28.443781,61.750847 27.908625,62.364128 C 27.373468,62.973503 26.637140,63.278191 25.699640,63.278191 C 24.758234,63.278191 24.019953,62.973503 23.484797,62.364128 C 22.953547,61.750847 22.687922,60.907097 22.687922,59.832878 C 22.687922,58.754753 22.953547,57.911003 23.484797,57.301628 C 24.019953,56.692253 24.758234,56.387566 25.699640,56.387566 z M 12.850031,54.360222 L 14.613703,54.360222 L 16.846125,60.313347 L 19.090265,54.360222 L 20.853937,54.360222 L 20.853937,63.108269 L 19.699640,63.108269 L 19.699640,55.426628 L 17.443781,61.426628 L 16.254328,61.426628 L 13.998468,55.426628 L 13.998468,63.108269 L 12.850031,63.108269 L 12.850031,54.360222 z "
     id="path841" />
</svg>
